PathFileType	4	(X/Y/Z)	6_coords_data.trc
DataRate	CameraRate	NumFrames	NumMarkers	Units	OrigDataRate	OrigDataStartFrame	OrigNumFrames
30.0	30.0	7	21	m	30.0	1	66
Frame#	Time	THUMB_TIP	THUMB_IP	THUMB_MCP	THUMB_CMC	INDEX_TIP	INDEX_DIP	INDEX_PIP	INDEX_MCP	MIDDLE_TIP	MIDDLE_DIP	MIDDLE_PIP	MIDDLE_MCP	RING_TIP	RING_DIP	RING_PIP	RING_MCP	PINKY_TIP	PINKY_DIP	PINKY_PIP	PINKY_MCP	WRIST
X1	Y1	Z1	X2	Y2	Z2	X3	Y3	Z3	X4	Y4	Z4	X5	Y5	Z5	X6	Y6	Z6	X7	Y7	Z7	X8	Y8	Z8	X9	Y9	Z9	X10	Y10	Z10	X11	Y11	Z11	X12	Y12	Z12	X13	Y13	Z13	X14	Y14	Z14	X15	Y15	Z15	X16	Y16	Z16	X17	Y17	Z17	X18	Y18	Z18	X19	Y19	Z19	X20	Y20	Z20	X21	Y21	Z21
0	0.0	0.04100469970703125	-0.022962400436401367	1.014010009765625	0.04062049865722656	-0.04623839950561524	1.0229500122070312	0.024400999069213867	-0.05933060073852539	1.0490400390625	0.00564640998840332	-0.03647930145263672	1.06352001953125	0.017861900329589845	-0.055124198913574216	1.0406500244140624	0.025896900177001952	-0.057021400451660154	1.021280029296875	0.02665719985961914	-0.06354380035400391	0.998447021484375	-0.01391160011291504	-0.06646309661865234	1.0045999755859376	0.032145000457763674	-0.043104000091552734	1.01997998046875	0.024190299987792967	-0.04074980163574219	1.0271300048828125	0.02660689926147461	-0.03968470001220703	0.9967620239257813	-0.017594499588012694	-0.04228200149536133	0.9960780029296875	0.0	0.0	0.0	0.01635390090942383	-0.024922199249267578	1.03506005859375	0.028306400299072266	-0.021684999465942382	1.0089400024414064	-0.01517020034790039	-0.01864889907836914	0.9997969970703126	0.0026839699745178224	-0.007841199874877929	1.0366400146484376	0.020110599517822264	-0.009399570465087891	1.0344200439453124	0.027749799728393556	-0.004095069885253906	1.01552001953125	-0.00654079008102417	0.002280610084533691	1.0109000244140625	-0.029972600936889648	-0.016371400833129882	1.0771600341796874
1	0.03333333333333333	0.04040000152587891	-0.023089199066162108	1.0151199951171874	0.03958449935913086	-0.04615819931030273	1.0243499755859375	0.024304399490356444	-0.060618698120117186	1.04802001953125	0.006106160163879394	-0.03560559844970703	1.0611700439453124	0.010017900466918946	-0.05804940032958984	1.0321700439453125	0.024711599349975587	-0.05803110122680664	1.02147998046875	0.0254689998626709	-0.06330580139160157	0.9995570068359375	-0.014660200119018555	-0.06563420104980469	1.0060599975585938	0.022808099746704103	-0.042282798767089846	1.030800048828125	0.023125099182128905	-0.04028850173950195	1.0266600341796874	0.026385499954223634	-0.040251201629638675	0.9983720092773437	-0.01811520004272461	-0.042711299896240236	0.9967750244140625	0.02241080093383789	-0.02754599952697754	1.0272099609375	0.018160600662231446	-0.023865999221801756	1.034	0.028415300369262694	-0.020803199768066407	1.0090900268554688	-0.01357409954071045	-0.018823299407958984	0.9993599853515625	0.005944859981536865	-0.007808650016784668	1.03981005859375	0.019742000579833986	-0.008435700416564941	1.03427001953125	0.02637190055847168	-0.004217589855194092	1.0162000122070312	-0.0040077600479125975	0.00151937997341156	1.008489990234375	-0.02746419906616211	-0.014973299980163574	1.077699951171875
2	0.06666666666666667	0.040631099700927736	-0.023079700469970703	1.0153300170898438	0.039540401458740236	-0.04614229965209961	1.024489990234375	0.024152000427246093	-0.06067210006713867	1.0481400146484374	0.006106569766998291	-0.03557339859008789	1.06127001953125	0.010130200386047363	-0.05803110122680664	1.031989990234375	0.02485610008239746	-0.05795019912719727	1.0215	0.025749799728393554	-0.06306370162963867	0.9998250122070312	-0.014418899536132812	-0.06551210021972656	1.0059000244140626	0.02257819938659668	-0.04211999893188476	1.0313699951171875	0.023189199447631835	-0.04019580078125	1.0266600341796874	0.026631900787353516	-0.040023799896240234	0.9985999755859375	-0.017884899139404296	-0.04256859970092773	0.9967949829101562	0.022593700408935546	-0.027159500122070312	1.0285400390625	0.01827280044555664	-0.023754899978637695	1.0341600341796875	0.028613399505615235	-0.02067060089111328	1.0093499755859374	-0.013391900062561034	-0.018711999893188478	0.9993419799804687	0.006083459854125977	-0.007711259841918945	1.0400400390625	0.019819000244140624	-0.008284359931945802	1.034280029296875	0.026524700164794923	-0.0040853900909423825	1.0165800170898438	-0.003918740034103393	0.0016663000583648682	1.0086300048828125	-0.02755769920349121	-0.014968600273132324	1.0775799560546875
3	0.1	0.04080379867553711	-0.023078500747680666	1.0153200073242188	0.039515300750732424	-0.046298099517822267	1.024550048828125	0.024147100448608398	-0.060742198944091795	1.0480799560546874	0.006099160194396973	-0.0355890998840332	1.0613299560546876	0.010061100006103515	-0.05799409866333008	1.0320400390625	0.02478580093383789	-0.057857700347900394	1.0215700073242187	0.02571540069580078	-0.06303919982910157	0.9997490234375	-0.01438889980316162	-0.06545050048828124	1.006	0.02273080062866211	-0.042114299774169923	1.03118994140625	0.0232406005859375	-0.040102798461914065	1.02677001953125	0.026815099716186522	-0.040076099395751956	0.9990800170898437	-0.017781299591064455	-0.042532100677490234	0.996822998046875	0.022018299102783204	-0.027377300262451172	1.0283499755859375	0.018181900024414062	-0.02357349967956543	1.034489990234375	0.028691900253295897	-0.020562000274658203	1.0094299926757813	-0.013237000465393067	-0.018638500213623045	0.9992990112304687	0.006030690193176268	-0.0075960798263549805	1.03981005859375	0.019875099182128906	-0.00820261001586914	1.034280029296875	0.026576700210571288	-0.003964099884033203	1.0165	-0.0037830801010131834	0.001722090005874633	1.0085399780273439	-0.02723010063171387	-0.014914099693298339	1.07781005859375
4	0.13333333333333333	0.040837600708007814	-0.02306209945678711	1.0152899780273437	0.03940449905395508	-0.04622420120239258	1.0244300537109374	0.024096399307250976	-0.06069100189208984	1.047949951171875	0.005983129978179931	-0.03555860137939453	1.06125	0.010057499885559082	-0.05792850112915039	1.0320699462890626	0.024682600021362303	-0.057832401275634764	1.021280029296875	0.025706600189208985	-0.06285250091552734	0.9996790161132812	-0.014416299819946288	-0.0653041000366211	1.0057999877929686	0.02268869972229004	-0.04201039886474609	1.0308900146484374	0.023207799911499023	-0.039964801788330076	1.0266700439453125	0.026755800247192384	-0.039909099578857424	0.9988150024414062	-0.01773889923095703	-0.04238819885253906	0.9966480102539063	0.022456100463867187	-0.027095300674438477	1.0283699951171874	0.018071399688720704	-0.02352199935913086	1.034219970703125	0.02871030044555664	-0.020413999557495118	1.0093900146484376	-0.013178099632263183	-0.01851409912109375	0.99914599609375	0.006043769836425781	-0.00753430986404419	1.0398299560546875	0.02000760078430176	-0.008094010353088378	1.034719970703125	0.026578300476074217	-0.0038903000354766843	1.0166500244140626	-0.0038905599117279054	0.00188152003288269	1.0086199951171875	-0.02742889976501465	-0.014832099914550782	1.0776400146484375
5	0.16666666666666666	0.040889598846435546	-0.023053699493408204	1.015260009765625	0.039328399658203124	-0.04627280044555664	1.0243699951171874	0.02401289939880371	-0.060725299835205075	1.0478800048828125	0.005935379981994629	-0.03553379821777344	1.0611400146484375	0.00997996997833252	-0.05802280044555664	1.0316800537109374	0.024678499221801757	-0.057766101837158204	1.0213300170898438	0.02574959945678711	-0.06278509902954102	0.9995230102539062	-0.014360600471496583	-0.06526969909667969	1.0056799926757813	0.022715200424194337	-0.04196820068359375	1.030780029296875	0.02319510078430176	-0.03987820053100586	1.026760009765625	0.02678770065307617	-0.039742000579833986	0.998593994140625	-0.01764419937133789	-0.0423577995300293	0.9965479736328124	0.022332399368286134	-0.02718560028076172	1.027050048828125	0.01809250068664551	-0.0234911003112793	1.0341199951171876	0.028699600219726562	-0.02032509994506836	1.009280029296875	-0.01324370002746582	-0.018458999633789063	0.9991939697265625	0.0060524001121520996	-0.007540689945220947	1.0398499755859374	0.019842399597167968	-0.008059209823608398	1.0345	0.026599300384521483	-0.003772480010986328	1.0163300170898437	-0.0038796300888061523	0.001920789957046508	1.008530029296875	-0.027523500442504883	-0.01476099967956543	1.0775899658203125
6	0.2	0.040807598114013674	-0.02311520004272461	1.0150399780273438	0.039245800018310545	-0.04637850189208984	1.0241500244140624	0.023924400329589843	-0.060779300689697266	1.0477099609375	0.005899360179901123	-0.03560409927368164	1.061010009765625	0.010069600105285645	-0.05790739822387695	1.0316099853515626	0.024632600784301757	-0.0577760009765625	1.0212100219726563	0.02554689979553223	-0.06287269973754883	0.999406005859375	-0.014430899620056153	-0.06530780029296875	1.0055700073242186	0.022374099731445312	-0.04192190170288086	1.0312900390625	0.02312630081176758	-0.03992879867553711	1.0265400390625	0.026714300155639647	-0.0397775993347168	0.99843701171875	-0.017733600616455077	-0.042418701171875	0.9964669799804687	0.022387800216674806	-0.027071699142456055	1.0274100341796875	0.018147300720214844	-0.023460399627685546	1.03418994140625	0.02865089988708496	-0.02035210037231445	1.0091500244140625	-0.013321499824523925	-0.018521600723266602	0.9990650024414063	0.0059638099670410154	-0.007521969795227051	1.0396099853515626	0.0198523006439209	-0.008064820289611816	1.0341800537109376	0.02653779983520508	-0.003811889886856079	1.0163599853515626	-0.003907500028610229	0.0018736000061035153	1.0083499755859375	-0.027552099227905275	-0.014843199729919434	1.0773499755859375
